<?xml version="1.0" standalone="no"?>
<!DOCTYPE svg PUBLIC "-//W3C//DTD SVG 20010904//EN"
 "http://www.w3.org/TR/2001/REC-SVG-20010904/DTD/svg10.dtd">
<svg version="1.0" xmlns="http://www.w3.org/2000/svg"
 width="90.000000pt" height="90.000000pt" viewBox="0 0 90.000000 90.000000"
 preserveAspectRatio="xMidYMid meet">

<g transform="translate(0.000000,90.000000) scale(0.100000,-0.100000)"
fill="#000000" stroke="none">
<path d="M367 744 c-4 -4 -7 -126 -7 -271 l0 -263 75 0 75 0 -2 268 -3 267
-65 3 c-36 2 -69 0 -73 -4z"/>
<path d="M30 390 l0 -300 375 0 375 0 0 30 0 30 -345 0 -345 0 0 270 0 270
-30 0 -30 0 0 -300z"/>
<path d="M577 684 c-4 -4 -7 -112 -7 -241 l0 -233 75 0 75 0 -2 238 -3 237
-65 3 c-36 2 -69 0 -73 -4z"/>
<path d="M157 564 c-4 -4 -7 -85 -7 -181 l0 -173 75 0 75 0 -2 178 -3 177 -65
3 c-36 2 -69 0 -73 -4z"/>
</g>
</svg>
