<?xml version="1.0" standalone="no"?>
<!DOCTYPE svg PUBLIC "-//W3C//DTD SVG 20010904//EN"
 "http://www.w3.org/TR/2001/REC-SVG-20010904/DTD/svg10.dtd">
<svg version="1.0" xmlns="http://www.w3.org/2000/svg"
 width="96.000000pt" height="96.000000pt" viewBox="0 0 96.000000 96.000000"
 preserveAspectRatio="xMidYMid meet">

<g transform="translate(0.000000,96.000000) scale(0.100000,-0.100000)" stroke="">
<path d="M92 748 c-16 -16 -15 -43 2 -57 9 -8 121 -10 391 -9 347 3 379 4 389
21 8 12 8 22 0 35 -10 16 -42 17 -390 20 -287 2 -383 -1 -392 -10z"/>
<path d="M92 508 c-16 -16 -15 -43 2 -57 9 -8 105 -11 331 -9 290 3 319 5 329
21 8 12 8 22 0 35 -10 15 -39 17 -330 20 -240 2 -323 -1 -332 -10z"/>
<path d="M92 268 c-16 -16 -15 -43 2 -57 9 -8 74 -11 211 -9 176 3 199 5 209
20 8 13 8 23 0 35 -10 16 -33 18 -210 21 -147 2 -203 -1 -212 -10z"/>
</g>
</svg>
