<?xml version="1.0" standalone="no"?><!DOCTYPE svg PUBLIC "-//W3C//DTD SVG 20010904//EN" "http://www.w3.org/TR/2001/REC-SVG-20010904/DTD/svg10.dtd"><svg version="1.0" xmlns="http://www.w3.org/2000/svg" width="64.000000pt" height="64.000000pt" viewBox="0 0 64.000000 64.000000" preserveAspectRatio="xMidYMid meet"><g transform="translate(0.000000,64.000000) scale(0.100000,-0.100000)" stroke=""><path d="M103 612 c-4 -16 -15 -22 -47 -24 l-41 -3 0 -285 0 -285 259 -3 260 -2 48 47 48 48 -2 240 -3 240 -41 3 c-32 2 -43 8 -47 24 -6 22 -27 16 -27 -8 0 -12 -31 -14 -190 -14 -159 0 -190 2 -190 14 0 24 -21 30 -27 8z m-3 -66 c0 -24 21 -30 27 -7 5 20 11 21 194 21 158 0 189 -2 189 -14 0 -24 21 -30 27 -7 4 15 13 21 34 21 26 0 29 -4 29 -30 l0 -30 -280 0 -280 0 0 30 c0 27 3 30 30 30 19 0 30 -5 30 -14z m500 -250 l0 -175 -37 -3 c-36 -3 -38 -5 -41 -41 l-3 -37 -240 0 -239 0 0 215 0 215 280 0 280 0 0 -174z m-20 -210 c0 -2 -7 -9 -15 -16 -12 -10 -15 -10 -15 4 0 9 7 16 15 16 8 0 15 -2 15 -4z"/><path d="M154 387 c-2 -7 -3 -65 -2 -128 l3 -114 163 0 c100 0 163 4 165 10 1 6 -15 11 -35 13 -32 3 -38 7 -38 27 0 20 6 24 38 27 l37 3 0 85 0 85 -163 3 c-128 2 -164 0 -168 -11z m76 -42 c0 -20 -5 -25 -25 -25 -20 0 -25 5 -25 25 0 20 5 25 25 25 20 0 25 -5 25 -25z m80 0 c0 -20 -5 -25 -25 -25 -20 0 -25 5 -25 25 0 20 5 25 25 25 20 0 25 -5 25 -25z m70 0 c0 -20 -5 -25 -25 -25 -20 0 -25 5 -25 25 0 20 5 25 25 25 20 0 25 -5 25 -25z m80 0 c0 -20 -5 -25 -25 -25 -20 0 -25 5 -25 25 0 20 5 25 25 25 20 0 25 -5 25 -25z m-230 -80 c0 -20 -5 -25 -25 -25 -20 0 -25 5 -25 25 0 20 5 25 25 25 20 0 25 -5 25 -25z m78 3 c-2 -15 -11 -24 -25 -26 -19 -3 -23 1 -23 22 0 21 5 26 26 26 21 0 25 -4 22 -22z m72 -4 c0 -21 -4 -25 -22 -22 -15 2 -24 11 -26 26 -3 18 1 22 22 22 21 0 26 -5 26 -26z m80 1 c0 -20 -5 -25 -25 -25 -20 0 -25 5 -25 25 0 20 5 25 25 25 20 0 25 -5 25 -25z m-230 -70 c0 -20 -5 -25 -25 -25 -20 0 -25 5 -25 25 0 20 5 25 25 25 20 0 25 -5 25 -25z m80 0 c0 -20 -5 -25 -25 -25 -20 0 -25 5 -25 25 0 20 5 25 25 25 20 0 25 -5 25 -25z m70 0 c0 -20 -5 -25 -25 -25 -20 0 -25 5 -25 25 0 20 5 25 25 25 20 0 25 -5 25 -25z"/></g></svg>
