<?xml version="1.0" standalone="no"?>
<!DOCTYPE svg PUBLIC "-//W3C//DTD SVG 20010904//EN"
 "http://www.w3.org/TR/2001/REC-SVG-20010904/DTD/svg10.dtd">
<svg version="1.0" xmlns="http://www.w3.org/2000/svg"
 width="90.000000pt" height="90.000000pt" viewBox="0 0 90.000000 90.000000"
 preserveAspectRatio="xMidYMid meet">

<g transform="translate(0.000000,90.000000) scale(0.100000,-0.100000)"
fill="#000000" stroke="none">
<path d="M140 850 c-19 -19 -20 -33 -20 -355 0 -322 1 -336 20 -355 18 -18 33
-20 154 -20 l134 0 -2 73 c-1 72 -1 72 -31 77 -24 4 -30 10 -30 30 0 22 5 26
42 30 29 4 47 13 63 32 l21 27 -63 3 c-60 3 -63 4 -63 28 0 25 1 25 110 31 61
3 126 11 145 17 19 7 50 12 67 12 l33 0 0 175 c0 162 -2 177 -20 195 -19 19
-33 20 -280 20 -247 0 -261 -1 -280 -20z m455 -160 l0 -25 -173 -3 c-147 -2
-173 0 -178 13 -4 8 -4 22 0 30 5 13 31 15 178 13 l173 -3 0 -25z m-300 -150
c0 -18 -6 -26 -23 -28 -13 -2 -25 3 -28 12 -10 26 4 48 28 44 17 -2 23 -10 23
-28z m300 0 l0 -25 -113 -3 c-93 -2 -113 0 -118 13 -3 8 -3 22 0 30 5 13 25
15 118 13 l113 -3 0 -25z m-300 -120 c0 -18 -6 -26 -23 -28 -13 -2 -25 3 -28
12 -10 26 4 48 28 44 17 -2 23 -10 23 -28z m0 -120 c0 -18 -6 -26 -23 -28 -24
-4 -38 18 -28 44 3 9 15 14 28 12 17 -2 23 -10 23 -28z"/>
<path d="M605 401 c-168 -78 -164 -314 7 -385 170 -71 346 112 269 279 -49
106 -173 154 -276 106z m203 -125 c5 -22 -123 -156 -148 -156 -24 0 -92 75
-88 96 5 28 36 29 64 3 l25 -23 52 52 c54 54 88 65 95 28z"/>
</g>
</svg>
