<?xml version="1.0" standalone="no"?>
<!DOCTYPE svg PUBLIC "-//W3C//DTD SVG 20010904//EN"
 "http://www.w3.org/TR/2001/REC-SVG-20010904/DTD/svg10.dtd">
<svg version="1.0" xmlns="http://www.w3.org/2000/svg"
 width="64.000000pt" height="64.000000pt" viewBox="0 0 64.000000 64.000000"
 preserveAspectRatio="xMidYMid meet">

<g transform="translate(0.000000,64.000000) scale(0.100000,-0.100000)"
fill="#000000" stroke="none">
<path d="M218 461 c-83 -27 -188 -106 -188 -142 0 -10 21 -35 46 -58 149 -131
339 -131 488 0 25 23 46 49 46 59 0 38 -111 118 -199 144 -70 20 -122 20 -193
-3z m188 -55 c30 -30 34 -40 34 -86 0 -46 -4 -56 -34 -86 -30 -30 -40 -34 -86
-34 -46 0 -56 4 -86 34 -50 50 -50 122 0 172 30 30 40 34 86 34 46 0 56 -4 86
-34z m-216 -13 c-25 -48 -25 -93 0 -143 11 -22 17 -40 12 -40 -14 0 -96 56
-121 84 l-24 26 24 26 c25 28 107 84 121 84 4 0 -1 -17 -12 -37z m301 8 c24
-15 55 -40 68 -55 l24 -26 -24 -26 c-25 -28 -107 -84 -121 -84 -5 0 1 18 12
40 11 21 20 53 20 70 0 17 -9 49 -20 70 -11 22 -17 40 -12 40 4 0 28 -13 53
-29z"/>
<path d="M277 362 c-36 -40 -9 -102 45 -102 30 0 58 28 58 58 0 15 -6 22 -20
22 -10 0 -24 9 -30 20 -13 25 -32 25 -53 2z m51 -31 c26 -22 28 -37 7 -45 -32
-12 -61 17 -49 49 8 19 14 19 42 -4z"/>
</g>
</svg>
