<?xml version="1.0" standalone="no"?>
<!DOCTYPE svg PUBLIC "-//W3C//DTD SVG 20010904//EN"
 "http://www.w3.org/TR/2001/REC-SVG-20010904/DTD/svg10.dtd">
<svg version="1.0" xmlns="http://www.w3.org/2000/svg"
 width="100.000000pt" height="100.000000pt" viewBox="0 0 100.000000 100.000000"
 preserveAspectRatio="xMidYMid meet">

<g transform="translate(0.000000,100.000000) scale(0.100000,-0.100000)"
fill="#000000" stroke="none">
<path d="M432 929 c-45 -13 -108 -80 -121 -126 -14 -48 -14 -197 -1 -242 5
-19 23 -52 40 -72 23 -30 30 -48 30 -83 l0 -45 -93 -44 c-130 -62 -187 -125
-187 -207 l0 -30 400 0 400 0 0 30 c0 82 -58 146 -187 206 l-93 43 0 46 c0 36
7 55 29 83 43 56 54 101 49 216 -4 116 -23 159 -88 202 -43 29 -125 39 -178
23z"/>
</g>
</svg>
