<?xml version="1.0" standalone="no"?><!DOCTYPE svg PUBLIC "-//W3C//DTD SVG 20010904//EN" "http://www.w3.org/TR/2001/REC-SVG-20010904/DTD/svg10.dtd"><svg version="1.0" xmlns="http://www.w3.org/2000/svg" width="64.000000pt" height="64.000000pt" viewBox="0 0 64.000000 64.000000" preserveAspectRatio="xMidYMid meet"><g transform="translate(0.000000,64.000000) scale(0.100000,-0.100000)"><path d="M340 535 c0 -27 -18 -33 -38 -13 -9 9 -15 9 -24 0 -9 -9 -9 -15 0 -24 20 -20 14 -38 -13 -38 -18 0 -25 -5 -25 -20 0 -15 7 -20 25 -20 27 0 33 -18 13 -38 -9 -9 -9 -15 0 -24 9 -9 15 -9 24 0 20 20 38 14 38 -13 0 -18 5 -25 20 -25 15 0 20 7 20 25 0 27 18 33 38 13 9 -9 15 -9 24 0 9 9 9 15 0 24 -20 20 -14 38 13 38 18 0 25 5 25 20 0 15 -7 20 -25 20 -27 0 -33 18 -13 38 9 9 9 15 0 24 -9 9 -15 9 -24 0 -20 -20 -38 -14 -38 13 0 18 -5 25 -20 25 -15 0 -20 -7 -20 -25z m50 -70 c15 -18 10 -45 -12 -59 -35 -22 -74 27 -48 59 16 19 44 19 60 0z"/><path d="M125 259 c-27 -11 -53 -24 -58 -28 -5 -5 17 -95 28 -109 1 -1 24 6 51 17 l49 19 72 -40 71 -39 114 47 c128 53 131 55 123 77 -6 13 -22 9 -112 -29 -58 -24 -112 -44 -120 -44 -8 0 -44 16 -80 36 -63 36 -65 36 -103 21 -35 -13 -39 -13 -45 1 -8 21 2 29 57 43 44 12 48 11 90 -16 26 -18 61 -30 90 -33 44 -4 48 -3 48 17 0 18 -6 21 -37 21 -25 0 -53 10 -82 30 -52 35 -86 37 -156 9z"/></g></svg>
