<?xml version="1.0" standalone="no"?><!DOCTYPE svg PUBLIC "-//W3C//DTD SVG 20010904//EN" "http://www.w3.org/TR/2001/REC-SVG-20010904/DTD/svg10.dtd"><svg version="1.0" xmlns="http://www.w3.org/2000/svg" width="100.000000pt" height="100.000000pt" viewBox="0 0 100.000000 100.000000" preserveAspectRatio="xMidYMid meet"><g transform="translate(0.000000,100.000000) scale(0.100000,-0.100000)" stroke=""><path d="M379 942 c-79 -21 -150 -65 -216 -135 -126 -134 -157 -334 -76 -505 35 -75 140 -180 215 -215 31 -15 88 -32 126 -39 301 -51 575 222 524 523 -17 97 -53 169 -124 245 -118 126 -277 170 -449 126z m226 -37 c313 -81 418 -471 190 -700 -242 -241 -650 -109 -708 229 -50 295 226 546 518 471z"/><path d="M455 830 c-3 -5 -13 -32 -21 -60 -11 -38 -26 -59 -65 -92 -55 -48 -129 -141 -129 -163 0 -24 21 -17 49 17 14 17 58 63 98 103 56 55 75 81 84 117 9 31 17 44 26 41 18 -7 16 -66 -4 -124 -25 -70 -11 -82 105 -89 85 -5 87 -5 90 -32 2 -14 10 -32 18 -38 19 -16 18 -29 -3 -53 -17 -18 -17 -19 0 -32 22 -16 22 -28 -3 -50 -13 -12 -17 -25 -14 -45 8 -36 -7 -41 -131 -47 -71 -4 -122 0 -175 12 -137 30 -140 30 -140 9 0 -32 136 -59 297 -59 118 0 134 2 160 21 15 12 29 32 31 45 2 13 10 38 19 56 14 25 15 37 5 57 -7 16 -8 28 -2 31 15 9 12 49 -5 71 -8 10 -15 29 -15 41 0 37 -36 53 -122 53 -42 0 -79 4 -82 9 -3 5 1 25 9 45 23 55 20 118 -8 144 -24 23 -61 29 -72 12z"/></g></svg>