<?xml version="1.0" standalone="no"?><!DOCTYPE svg PUBLIC "-//W3C//DTD SVG 20010904//EN" "http://www.w3.org/TR/2001/REC-SVG-20010904/DTD/svg10.dtd"><svg version="1.0" xmlns="http://www.w3.org/2000/svg" width="96.000000pt" height="96.000000pt" viewBox="0 0 96.000000 96.000000" preserveAspectRatio="xMidYMid meet"><g transform="translate(0.000000,96.000000) scale(0.100000,-0.100000)" stroke=""><path d="M290 830 c-79 -44 -126 -94 -168 -179 -35 -71 -37 -81 -37 -170 0 -87 3 -102 31 -162 35 -74 88 -137 141 -170 l35 -22 68 68 68 68 64 1 c68 2 126 26 165 68 55 59 82 187 47 222 -27 28 -55 18 -115 -39 -60 -57 -86 -66 -113 -39 -27 27 -18 53 39 113 57 60 67 88 39 115 -50 51 -260 -29 -237 -90 8 -21 33 -17 74 11 20 14 54 29 75 32 l39 6 -47 -51 c-68 -73 -75 -126 -23 -177 51 -52 105 -45 176 22 43 40 49 43 49 24 0 -63 -70 -145 -135 -157 -19 -3 -51 -3 -72 1 -34 6 -39 4 -103 -60 l-67 -66 -42 42 -42 42 65 66 65 66 -7 70 c-6 57 -10 70 -26 73 -27 6 -36 -16 -34 -76 1 -51 -1 -55 -45 -100 l-46 -46 -13 30 c-6 16 -12 67 -12 114 -1 71 3 94 25 140 33 70 98 135 169 169 39 19 55 32 55 46 0 31 -43 29 -105 -5z"/><path d="M564 845 c-9 -21 1 -31 59 -58 67 -31 133 -97 166 -167 37 -79 37 -201 0 -280 -52 -110 -157 -184 -281 -198 -59 -7 -63 -9 -63 -32 0 -24 2 -25 67 -23 135 3 259 87 326 221 35 72 37 81 37 171 0 87 -3 102 -32 163 -40 85 -97 147 -172 187 -64 34 -98 39 -107 16z"/></g></svg>